<svg width="42" height="42" viewBox="0 0 42 42" fill="none" xmlns="http://www.w3.org/2000/svg">
<path d="M37.2029 11.3207C37.1232 11.1239 36.9971 10.9494 36.8352 10.8121C36.6733 10.6747 36.4806 10.5787 36.2734 10.5323C36.0663 10.4858 35.851 10.4903 35.646 10.5453C35.4409 10.6003 35.2523 10.7043 35.0963 10.8482L28.4846 16.9497L25.6578 16.3426L25.0507 13.5158L31.1522 6.90413C31.2962 6.7481 31.4001 6.55948 31.4551 6.35446C31.5101 6.14944 31.5146 5.93413 31.4681 5.727C31.4217 5.51987 31.3257 5.3271 31.1884 5.16522C31.051 5.00334 30.8765 4.87719 30.6797 4.79757C28.8864 4.07214 26.9424 3.79824 25.0185 3.99993C23.0945 4.20162 21.2496 4.87273 19.6457 5.95429C18.0418 7.03586 16.7281 8.49477 15.82 10.2029C14.9119 11.9109 14.4372 13.8159 14.4375 15.7504C14.4354 17.3839 14.7705 19.0003 15.4219 20.4984L5.54371 29.0394C5.51911 29.0591 5.49614 29.0821 5.47317 29.1034C4.48849 30.0881 3.9353 31.4236 3.9353 32.8162C3.9353 33.5057 4.07111 34.1884 4.33498 34.8255C4.59885 35.4625 4.9856 36.0413 5.47317 36.5289C5.96073 37.0165 6.53955 37.4032 7.17658 37.6671C7.81362 37.931 8.49638 38.0668 9.1859 38.0668C10.5784 38.0668 11.914 37.5136 12.8986 36.5289C12.92 36.5076 12.9429 36.483 12.9626 36.46L21.5021 26.5785C23.3009 27.3681 25.2683 27.6967 27.2261 27.5343C29.1839 27.372 31.0703 26.724 32.7145 25.6489C34.3587 24.5738 35.7089 23.1056 36.6427 21.3772C37.5765 19.6489 38.0645 17.7149 38.0625 15.7504C38.0651 14.2321 37.7731 12.7278 37.2029 11.3207ZM26.25 24.9379C24.6965 24.9357 23.1687 24.5407 21.8089 23.7894C21.5454 23.6439 21.24 23.5933 20.9437 23.6462C20.6474 23.6991 20.3782 23.8522 20.1814 24.0798L11.0103 34.7012C10.514 35.1727 9.85315 35.4317 9.16865 35.423C8.48415 35.4142 7.83015 35.1384 7.3461 34.6543C6.86204 34.1703 6.58623 33.5163 6.57747 32.8318C6.5687 32.1473 6.82768 31.4864 7.29918 30.9901L17.9124 21.8207C18.1405 21.6237 18.2938 21.3543 18.3467 21.0577C18.3996 20.761 18.3487 20.4552 18.2028 20.1916C17.3661 18.6783 16.9735 16.9597 17.07 15.2332C17.1665 13.5068 17.7483 11.8426 18.7484 10.4321C19.7485 9.02149 21.1264 7.9218 22.7236 7.25941C24.3209 6.59701 26.0726 6.3988 27.7775 6.68757L22.6587 12.2345C22.5163 12.389 22.413 12.5755 22.3577 12.7782C22.3023 12.9809 22.2964 13.1939 22.3404 13.3994L23.269 17.7191C23.3221 17.9662 23.4454 18.1927 23.6241 18.3714C23.8028 18.5501 24.0293 18.6734 24.2764 18.7265L28.5994 19.6551C28.8049 19.6991 29.0179 19.6932 29.2206 19.6378C29.4233 19.5825 29.6098 19.4792 29.7643 19.3368L35.3112 14.218C35.5324 15.5355 35.4638 16.8853 35.1105 18.1735C34.7571 19.4618 34.1273 20.6577 33.2649 21.6779C32.4026 22.6981 31.3283 23.5182 30.1169 24.0812C28.9054 24.6442 27.5859 24.9365 26.25 24.9379Z" fill="#2E2A26"/>
</svg>
